<svg xmlns="http://www.w3.org/2000/svg" viewBox="0 0 512 512" width="512" height="512">
  <!-- Rounded cyan square background -->
  <rect x="32" y="32" width="448" height="448" rx="96" ry="96" fill="#22D3EE"/>
  
  <!-- Ear icon - flat white silhouette -->
  <g transform="translate(256, 256) scale(1.0)" fill="none" stroke="white" stroke-width="24" stroke-linecap="round" stroke-linejoin="round">
    <!-- Outer ear -->
    <path d="M-60,40 C-60,40 -80,-20 -70,-70 C-60,-120 -20,-150 30,-140 C80,-130 100,-80 95,-40 C90,0 70,30 60,55 C50,80 45,100 30,115 C15,130 -10,130 -25,115"/>
    <!-- Inner ear curve -->
    <path d="M-30,-10 C-30,-10 -20,-60 20,-65 C50,-68 65,-40 60,-15 C55,10 35,30 20,45"/>
    <!-- Ear canal hint -->
    <path d="M-15,25 C-5,15 10,20 15,35"/>
  </g>
</svg>
